<svg height="512" viewBox="0 0 64 64" width="512" xmlns="http://www.w3.org/2000/svg"><g id="Schedue"><path d="m59 13a4 4 0 0 0 -4-4h-48a4 4 0 0 0 -4 4v8h56z" fill="#d80027"/><path d="m3 21h56a0 0 0 0 1 0 0v34a4 4 0 0 1 -4 4h-48a4 4 0 0 1 -4-4v-34a0 0 0 0 1 0 0z" fill="#d1e7f8"/><path d="m55 21v30a4 4 0 0 1 -4 4h-48a4 4 0 0 0 4 4h48a4 4 0 0 0 4-4v-34z" fill="#9bc9ff"/><circle cx="49" cy="49" fill="#ffcd00" r="12"/><path d="m51.112 60.819a11.995 11.995 0 0 0 3.888-22.201v4.382a12 12 0 0 1 -12 12h-4.382a12 12 0 0 0 12.494 5.819z" fill="#ebbf00"/><path d="m31 15a3 3 0 0 0 3-3v-6a3 3 0 0 0 -6 0v6a3 3 0 0 0 3 3z" fill="#ffcd00"/><path d="m47 15a3 3 0 0 0 3-3v-6a3 3 0 0 0 -6 0v6a3 3 0 0 0 3 3z" fill="#ffcd00"/><path d="m15 15a3 3 0 0 0 3-3v-6a3 3 0 0 0 -6 0v6a3 3 0 0 0 3 3z" fill="#ffcd00"/><circle cx="49" cy="49" fill="#d80027" r="2"/><rect fill="#006df0" height="5" rx="1" width="6" x="22" y="27"/><rect fill="#006df0" height="5" rx="1" width="6" x="34" y="27"/><rect fill="#006df0" height="5" rx="1" width="6" x="10" y="27"/><rect fill="#006df0" height="5" rx="1" width="6" x="46" y="27"/><rect fill="#006df0" height="5" rx="1" width="6" x="22" y="38"/><rect fill="#006df0" height="5" rx="1" width="6" x="34" y="38"/><rect fill="#006df0" height="5" rx="1" width="6" x="10" y="38"/><rect fill="#006df0" height="5" rx="1" width="6" x="22" y="49"/><rect fill="#006df0" height="5" rx="1" width="6" x="10" y="49"/><path d="m55 9h-4a4 4 0 0 1 4 4v8h4v-8a4 4 0 0 0 -4-4z" fill="#ab2300"/><g fill="#231f20"><path d="m55 8h-4v-2a4 4 0 0 0 -8 0v2h-8v-2a4 4 0 0 0 -8 0v2h-8v-2a4 4 0 0 0 -8 0v2h-4a5.006 5.006 0 0 0 -5 5v42a5.006 5.006 0 0 0 5 5h30a1 1 0 0 0 0-2h-30a3 3 0 0 1 -3-3v-33h54v14a1 1 0 0 0 2 0v-23a5.006 5.006 0 0 0 -5-5zm-10-2a2 2 0 0 1 4 0v6a2 2 0 0 1 -4 0zm-16 0a2 2 0 0 1 4 0v6a2 2 0 0 1 -4 0zm-16 0a2 2 0 0 1 4 0v6a2 2 0 0 1 -4 0zm-9 14v-7a3 3 0 0 1 3-3h4v2a4 4 0 0 0 8 0v-2h8v2a4 4 0 0 0 8 0v-2h8v2a4 4 0 0 0 8 0v-2h4a3 3 0 0 1 3 3v7z"/><path d="m61 41a1 1 0 0 0 0-2h-4a1 1 0 0 0 -1 1v4a1 1 0 0 0 2 0v-1.307a10.975 10.975 0 1 1 -5.162-4 1 1 0 1 0 .7-1.875 13.018 13.018 0 1 0 5.697 4.182z"/><path d="m50 46.184v-5.184a1 1 0 0 0 -2 0v5.184a3 3 0 0 0 -1.816 1.816h-3.184a1 1 0 0 0 0 2h3.184a2.993 2.993 0 1 0 3.816-3.816zm-1 3.816a1 1 0 1 1 1-1 1 1 0 0 1 -1 1z"/><path d="m27 33h-4a2 2 0 0 1 -2-2v-3a2 2 0 0 1 2-2h4a2 2 0 0 1 2 2v3a2 2 0 0 1 -2 2zm-4-5v3h4v-3z"/><path d="m39 33h-4a2 2 0 0 1 -2-2v-3a2 2 0 0 1 2-2h4a2 2 0 0 1 2 2v3a2 2 0 0 1 -2 2zm-4-5v3h4v-3z"/><path d="m15 33h-4a2 2 0 0 1 -2-2v-3a2 2 0 0 1 2-2h4a2 2 0 0 1 2 2v3a2 2 0 0 1 -2 2zm-4-5v3h4v-3z"/><path d="m51 33h-4a2 2 0 0 1 -2-2v-3a2 2 0 0 1 2-2h4a2 2 0 0 1 2 2v3a2 2 0 0 1 -2 2zm-4-5v3h4v-3z"/><path d="m27 44h-4a2 2 0 0 1 -2-2v-3a2 2 0 0 1 2-2h4a2 2 0 0 1 2 2v3a2 2 0 0 1 -2 2zm-4-5v3h4v-3z"/><path d="m35 44a2 2 0 0 1 -2-2v-3a2 2 0 0 1 2-2h3a1 1 0 0 1 0 2h-3v3a1 1 0 0 1 0 2z"/><path d="m15 44h-4a2 2 0 0 1 -2-2v-3a2 2 0 0 1 2-2h4a2 2 0 0 1 2 2v3a2 2 0 0 1 -2 2zm-4-5v3h4v-3z"/><path d="m27 55h-4a2 2 0 0 1 -2-2v-3a2 2 0 0 1 2-2h4a2 2 0 0 1 2 2v3a2 2 0 0 1 -2 2zm-4-5v3h4v-3z"/><path d="m15 55h-4a2 2 0 0 1 -2-2v-3a2 2 0 0 1 2-2h4a2 2 0 0 1 2 2v3a2 2 0 0 1 -2 2zm-4-5v3h4v-3z"/></g></g></svg>